<svg xmlns="http://www.w3.org/2000/svg" width="192" height="192" viewBox="0 0 192 192"><defs><linearGradient id="g" x1="28" y1="18" x2="162" y2="174" gradientUnits="userSpaceOnUse"><stop stop-color="#244f59"/><stop offset=".62" stop-color="#3b7380"/><stop offset="1" stop-color="#88c8c0"/></linearGradient></defs><rect width="192" height="192" rx="44" fill="url(#g)"/><path d="M48 92c18 0 31 5 48 18 17-13 30-18 48-18v42c-18 0-32 5-48 18-16-13-30-18-48-18V92Z" fill="#fff"/><path d="M96 110v42" stroke="#d8cabe" stroke-width="5" stroke-linecap="round"/><path d="M103 64c17-24 38-22 51-14-3 20-19 39-51 34 0 0-3-10 0-20Z" fill="#bce2dc"/><path d="M58 53h44v18H58z" rx="9" fill="#bfac9d" opacity=".9"/></svg>
